<svg xmlns="http://www.w3.org/2000/svg" width="1307.868" height="603.674" viewBox="0 0 1307.868 603.674">
  <g id="Grupo_47" data-name="Grupo 47" transform="translate(-155.977 -52)">
    <path id="Caminho_92" data-name="Caminho 92" d="M1368,268.834c-13.22,154.152-177.773,318.359-494.58,294.446C555.822,539.324,424.4,872.508,424.4,872.508S397.164,481.885,684.466,335.813,1097.893,474.77,1368,268.834" transform="translate(-267.728 -216.834)" fill="#5a9a40"/>
    <path id="Caminho_93" data-name="Caminho 93" d="M1048.159,358C982.361,469.428,829.858,559,590.205,540.9a420.993,420.993,0,0,0-53.087-.663c87.542,64.875,185.3,134.553,329.641,149.92,259.108,27.59,366.451-350.8,581.6-313.912C1279.512,227.3,1174.925,269.319,1048.159,358" transform="translate(15.485 -197.458)" fill="#65a949"/>
  </g>
</svg>
