<svg xmlns="http://www.w3.org/2000/svg" width="1366.5" height="443.633" viewBox="0 0 1366.5 443.633">
  <g id="Grupo_68" data-name="Grupo 68" transform="translate(0.5 -3077.367)">
    <rect id="Retângulo_71" data-name="Retângulo 71" width="1366" height="443" transform="translate(0 3078)" fill="#fcfcfc"/>
    <g id="Grupo_67" data-name="Grupo 67">
      <path id="Subtração_18" data-name="Subtração 18" d="M1494.287,297.228c-19.693,0-40.08-.785-60.6-2.333-10.833-.817-21.729-1.232-32.386-1.232-11.838,0-23.716.511-35.3,1.52V27.411c8.35-1.227,16.848-2.152,25.258-2.75,8.069-.574,16.311-.865,24.5-.865a375.27,375.27,0,0,1,41.467,2.339c12.755,1.4,25.768,3.422,39.78,6.167,11.757,2.3,24.356,5.155,38.518,8.719,12.525,3.152,24.971,6.527,37.681,10l3.043.831c49.7,13.571,96.649,26.389,147.727,26.389,69.775,0,134.692-24.718,204.3-77.788a251.279,251.279,0,0,1-10.823,54.1,276.764,276.764,0,0,1-23.213,53.025,306.514,306.514,0,0,1-35.612,50.062,343.267,343.267,0,0,1-48.019,45.205c-37.793,29.374-82.64,52.343-133.293,68.268-13.267,4.171-27.092,7.9-41.091,11.073-14.31,3.247-29.181,6.007-44.2,8.2-15.353,2.244-31.271,3.959-47.31,5.1C1528.312,296.639,1511.348,297.228,1494.287,297.228Z" transform="translate(-1366 3078)" fill="#5a9a40" stroke="rgba(0,0,0,0)" stroke-miterlimit="10" stroke-width="1"/>
      <path id="Caminho_93" data-name="Caminho 93" d="M1048.159,358C982.361,469.428,829.858,559,590.205,540.9a420.993,420.993,0,0,0-53.087-.663c87.542,64.875,185.3,134.553,329.641,149.92,259.108,27.59,366.451-350.8,581.6-313.912C1279.512,227.3,1174.925,269.319,1048.159,358" transform="translate(-522.515 2828.991)" fill="#65a949"/>
    </g>
  </g>
</svg>
