<svg xmlns="http://www.w3.org/2000/svg" width="100.181" height="37.229" viewBox="0 0 100.181 37.229">
  <g id="Grupo_60" data-name="Grupo 60" transform="translate(-44.121 -108.904)">
    <path id="Caminho_114" data-name="Caminho 114" d="M63.57,109.037l-13.086,3.542a3.818,3.818,0,0,0-2.688,2.688l-3.543,13.086a3.819,3.819,0,0,0,.986,3.7l9.526,9.526a3.82,3.82,0,0,0,3.7.986l13.084-3.542a3.82,3.82,0,0,0,2.688-2.688l3.544-13.086a3.819,3.819,0,0,0-.986-3.7l-9.527-9.525A3.819,3.819,0,0,0,63.57,109.037ZM69.329,136.8l-10.055,2.722a3.819,3.819,0,0,1-3.7-.986l-7.293-7.3a3.82,3.82,0,0,1-.986-3.7l2.719-10.053A3.819,3.819,0,0,1,52.7,114.8l10.058-2.722a3.819,3.819,0,0,1,3.7.986l7.293,7.3a3.82,3.82,0,0,1,.985,3.7l-2.72,10.054A3.819,3.819,0,0,1,69.329,136.8Z" fill="#696969"/>
    <path id="Caminho_115" data-name="Caminho 115" d="M74.534,132.83a4.572,4.572,0,0,0-2.087.461,5.2,5.2,0,0,0-1.663,1.362,3.193,3.193,0,0,0-1.267-1.352,4.26,4.26,0,0,0-3.067-.322,3.593,3.593,0,0,0-.905.408,4.194,4.194,0,0,0-.735.59,7.045,7.045,0,0,0-.608.7v-1.632H60.964v11.419H64.2v-6.354a2.53,2.53,0,0,1,.522-1.732,1.832,1.832,0,0,1,1.439-.585,1.734,1.734,0,0,1,1.406.585,2.641,2.641,0,0,1,.489,1.732v6.354h3.238v-6.354a2.523,2.523,0,0,1,.522-1.732,1.831,1.831,0,0,1,1.439-.585,1.734,1.734,0,0,1,1.406.585,2.644,2.644,0,0,1,.489,1.732v6.354h3.238v-7.435a4.349,4.349,0,0,0-1.023-3.131A3.742,3.742,0,0,0,74.534,132.83Z" transform="translate(-8.659 -12.301)" fill="#696969"/>
    <g id="Grupo_59" data-name="Grupo 59" transform="translate(84.047 116.751)">
      <g id="Grupo_57" data-name="Grupo 57" transform="translate(0)">
        <path id="Caminho_116" data-name="Caminho 116" d="M240.17,142.976a3.037,3.037,0,0,1-.926,1.14,4.192,4.192,0,0,1-1.4.671,6.351,6.351,0,0,1-1.715.224,8,8,0,0,1-4.9-1.726l1.385-2.13a7.759,7.759,0,0,0,1.864,1.022,5.057,5.057,0,0,0,1.737.341,1.8,1.8,0,0,0,1.033-.234.723.723,0,0,0,.329-.618v-.042a.618.618,0,0,0-.191-.447,1.622,1.622,0,0,0-.522-.33,7.614,7.614,0,0,0-.757-.266q-.426-.128-.894-.277a11.782,11.782,0,0,1-1.2-.415,4.334,4.334,0,0,1-1.1-.638,3.147,3.147,0,0,1-.8-.969,2.957,2.957,0,0,1-.309-1.406v-.042a3.364,3.364,0,0,1,1.226-2.684,3.8,3.8,0,0,1,1.321-.7,5.478,5.478,0,0,1,1.63-.234,7.337,7.337,0,0,1,2.2.351,8.14,8.14,0,0,1,2.054.969l-1.234,2.237a10.2,10.2,0,0,0-1.663-.777,4.341,4.341,0,0,0-1.427-.288,1.479,1.479,0,0,0-.895.224.677.677,0,0,0-.3.564v.043a.561.561,0,0,0,.19.415,2.154,2.154,0,0,0,.512.341,6.6,6.6,0,0,0,.735.309q.415.149.884.3.6.192,1.216.458a5.035,5.035,0,0,1,1.107.65,3.2,3.2,0,0,1,.808.938,2.641,2.641,0,0,1,.321,1.342v.042A3.806,3.806,0,0,1,240.17,142.976Z" transform="translate(-180.246 -129.246)" fill="#696969"/>
        <path id="Caminho_117" data-name="Caminho 117" d="M140.482,144.726v-6.354a2.645,2.645,0,0,0-.489-1.732,1.736,1.736,0,0,0-1.406-.584,1.832,1.832,0,0,0-1.439.584,2.524,2.524,0,0,0-.522,1.732v6.354h-3.238v-6.354a2.642,2.642,0,0,0-.489-1.732,1.735,1.735,0,0,0-1.406-.584,1.833,1.833,0,0,0-1.439.584,2.531,2.531,0,0,0-.522,1.732v6.354H126.3V133.307h3.237v1.632a7.043,7.043,0,0,1,.608-.7,4.192,4.192,0,0,1,.735-.59,3.593,3.593,0,0,1,.905-.408,4.26,4.26,0,0,1,3.067.322,3.2,3.2,0,0,1,1.267,1.352,5.2,5.2,0,0,1,1.663-1.362,4.571,4.571,0,0,1,2.087-.461,3.741,3.741,0,0,1,2.833,1.065,4.35,4.35,0,0,1,1.023,3.131v7.435Z" transform="translate(-126.295 -129.188)" fill="#696969"/>
        <path id="Caminho_118" data-name="Caminho 118" d="M176.535,139.767c-.007.114-.017.249-.031.4h-7.945a2.723,2.723,0,0,0,.969,1.672,2.9,2.9,0,0,0,1.821.565,3.612,3.612,0,0,0,1.449-.277,4.96,4.96,0,0,0,1.321-.895l1.854,1.64a5.742,5.742,0,0,1-1.961,1.566,6.072,6.072,0,0,1-2.7.564,6.48,6.48,0,0,1-2.375-.427,5.488,5.488,0,0,1-1.9-1.213,5.618,5.618,0,0,1-1.246-1.865,6.181,6.181,0,0,1-.447-2.4v-.043a6.379,6.379,0,0,1,.416-2.3,5.837,5.837,0,0,1,1.16-1.9,5.408,5.408,0,0,1,4.069-1.747,5.571,5.571,0,0,1,2.472.511,5.047,5.047,0,0,1,1.736,1.374,5.729,5.729,0,0,1,1.023,1.982,8.192,8.192,0,0,1,.331,2.332v.043C176.547,139.519,176.542,139.653,176.535,139.767Zm-3.907-3.376a2.126,2.126,0,0,0-1.642-.671,2.176,2.176,0,0,0-1.651.661,3.314,3.314,0,0,0-.82,1.767h4.879A3.154,3.154,0,0,0,172.628,136.39Z" transform="translate(-146.369 -129.201)" fill="#696969"/>
        <path id="Caminho_119" data-name="Caminho 119" d="M193.665,142.791V129.306H196.9v13.485Z" transform="translate(-160.932 -127.24)" fill="#696969"/>
        <path id="Caminho_120" data-name="Caminho 120" d="M206.906,140.6v-15.55h3.236V140.6Z" transform="translate(-167.739 -125.054)" fill="#696969"/>
        <rect id="Retângulo_47" data-name="Retângulo 47" width="3.237" height="11.419" transform="translate(45.6 4.132)" fill="#696969"/>
      </g>
      <g id="Grupo_58" data-name="Grupo 58" transform="translate(11.594 17.947)">
        <path id="Caminho_121" data-name="Caminho 121" d="M169.323,168.5v-.579a1.7,1.7,0,0,1-.215.242,1.426,1.426,0,0,1-.29.211,1.674,1.674,0,0,1-.825.208,1.741,1.741,0,0,1-.483-.069,1.406,1.406,0,0,1-.43-.2,1.1,1.1,0,0,1-.31-.341.93.93,0,0,1-.119-.477v-.014a1.019,1.019,0,0,1,.112-.484,1.036,1.036,0,0,1,.31-.354,1.44,1.44,0,0,1,.477-.218,2.385,2.385,0,0,1,.62-.075,4.312,4.312,0,0,1,.634.041,4.778,4.778,0,0,1,.517.109v-.149a1,1,0,0,0-.3-.792,1.237,1.237,0,0,0-.842-.265,2.076,2.076,0,0,0-.586.078,2.918,2.918,0,0,0-.5.2l-.122-.293a3.525,3.525,0,0,1,.579-.223,2.375,2.375,0,0,1,.654-.084,1.555,1.555,0,0,1,1.063.341,1.287,1.287,0,0,1,.389,1.022V168.5Zm.007-1.7q-.218-.054-.511-.105a3.917,3.917,0,0,0-.668-.051,1.4,1.4,0,0,0-.848.221.694.694,0,0,0-.3.586v.014a.683.683,0,0,0,.082.336.773.773,0,0,0,.222.247,1.043,1.043,0,0,0,.324.156,1.331,1.331,0,0,0,.382.054,1.609,1.609,0,0,0,.5-.078,1.372,1.372,0,0,0,.419-.217,1.064,1.064,0,0,0,.286-.336.905.905,0,0,0,.105-.434Z" transform="translate(-158.638 -163.521)" fill="#696969"/>
        <path id="Caminho_122" data-name="Caminho 122" d="M178.156,168.629a1.411,1.411,0,0,1-.355.515,1.553,1.553,0,0,1-.543.317,2.073,2.073,0,0,1-.682.109,2.6,2.6,0,0,1-1.6-.538l.2-.273a2.247,2.247,0,0,0,1.407.491,1.7,1.7,0,0,0,.55-.085,1.146,1.146,0,0,0,.714-.673,1.543,1.543,0,0,0,.1-.585v-.5a2.319,2.319,0,0,1-.258.307,1.846,1.846,0,0,1-.321.256,1.572,1.572,0,0,1-.4.177,1.664,1.664,0,0,1-.477.065,1.718,1.718,0,0,1-1.149-.447,1.659,1.659,0,0,1-.378-.514,1.55,1.55,0,0,1-.143-.674v-.014a1.593,1.593,0,0,1,.143-.681,1.64,1.64,0,0,1,.378-.521,1.727,1.727,0,0,1,1.629-.381,1.714,1.714,0,0,1,.4.17,1.639,1.639,0,0,1,.32.249,2.435,2.435,0,0,1,.252.293v-.7h.334v2.937A1.829,1.829,0,0,1,178.156,168.629Zm-.187-2.078a1.2,1.2,0,0,0-.123-.545,1.344,1.344,0,0,0-.325-.419,1.423,1.423,0,0,0-.461-.266,1.588,1.588,0,0,0-.533-.092,1.47,1.47,0,0,0-.519.092,1.288,1.288,0,0,0-.43.262,1.218,1.218,0,0,0-.291.412,1.365,1.365,0,0,0-.105.549v.014a1.307,1.307,0,0,0,.109.538,1.29,1.29,0,0,0,.294.419,1.387,1.387,0,0,0,.942.372,1.543,1.543,0,0,0,.533-.1,1.486,1.486,0,0,0,.461-.27,1.341,1.341,0,0,0,.325-.415,1.176,1.176,0,0,0,.123-.542Z" transform="translate(-162.841 -163.492)" fill="#696969"/>
        <path id="Caminho_123" data-name="Caminho 123" d="M184.554,166.035a1.5,1.5,0,0,0,.307.427,1.26,1.26,0,0,0,.42.268,1.358,1.358,0,0,0,.5.091,1.414,1.414,0,0,0,.693-.156,2.051,2.051,0,0,0,.5-.389l.232.2a2.425,2.425,0,0,1-.6.474,1.71,1.71,0,0,1-.836.188,1.674,1.674,0,0,1-.652-.13,1.641,1.641,0,0,1-.547-.368,1.736,1.736,0,0,1-.372-.572,1.946,1.946,0,0,1-.137-.742v-.014a1.962,1.962,0,0,1,.126-.706,1.827,1.827,0,0,1,.347-.576,1.661,1.661,0,0,1,.521-.388,1.5,1.5,0,0,1,.654-.143,1.514,1.514,0,0,1,.661.14,1.5,1.5,0,0,1,.5.385,1.756,1.756,0,0,1,.321.576,2.219,2.219,0,0,1,.112.719v.075a.369.369,0,0,1-.007.061H184.41A1.511,1.511,0,0,0,184.554,166.035Zm2.391-.877a1.98,1.98,0,0,0-.106-.508,1.4,1.4,0,0,0-.24-.429,1.14,1.14,0,0,0-.379-.3,1.243,1.243,0,0,0-1.011-.011,1.22,1.22,0,0,0-.393.283,1.537,1.537,0,0,0-.277.429,1.6,1.6,0,0,0-.13.535Zm-1.771-2.153h-.307l.681-.832h.273l.682.832h-.321l-.5-.464Z" transform="translate(-167.585 -162.086)" fill="#696969"/>
        <path id="Caminho_124" data-name="Caminho 124" d="M195.38,168.466V166.4a1.255,1.255,0,0,0-.286-.862,1.033,1.033,0,0,0-.818-.324,1.218,1.218,0,0,0-.477.092,1.185,1.185,0,0,0-.381.256,1.168,1.168,0,0,0-.256.392,1.33,1.33,0,0,0-.092.5v2.01h-.334v-3.475h.334v.647a1.611,1.611,0,0,1,.477-.518,1.32,1.32,0,0,1,.776-.211,1.542,1.542,0,0,1,.586.106,1.225,1.225,0,0,1,.712.75,1.729,1.729,0,0,1,.092.575v2.126Z" transform="translate(-172.048 -163.492)" fill="#696969"/>
        <path id="Caminho_125" data-name="Caminho 125" d="M203.421,168.35a1.578,1.578,0,0,1-.814.2,1.666,1.666,0,0,1-.7-.147,1.8,1.8,0,0,1-.561-.392,1.776,1.776,0,0,1-.371-.572,1.814,1.814,0,0,1-.134-.695v-.014a1.816,1.816,0,0,1,.134-.7,1.867,1.867,0,0,1,.371-.579,1.766,1.766,0,0,1,.561-.4,1.673,1.673,0,0,1,.7-.147,1.767,1.767,0,0,1,.446.052,1.7,1.7,0,0,1,.372.143,1.808,1.808,0,0,1,.31.207,3.223,3.223,0,0,1,.262.245l-.239.245a2.639,2.639,0,0,0-.5-.4,1.224,1.224,0,0,0-.66-.171,1.328,1.328,0,0,0-.555.116,1.375,1.375,0,0,0-.443.315,1.5,1.5,0,0,0-.3.472,1.544,1.544,0,0,0-.109.583v.014a1.526,1.526,0,0,0,.113.586,1.51,1.51,0,0,0,.307.479,1.413,1.413,0,0,0,.453.318,1.354,1.354,0,0,0,.559.116,1.288,1.288,0,0,0,.657-.167,2.038,2.038,0,0,0,.508-.412l.232.2A2.446,2.446,0,0,1,203.421,168.35Z" transform="translate(-176.216 -163.492)" fill="#696969"/>
        <path id="Caminho_126" data-name="Caminho 126" d="M209.355,162.73v-.457h.416v.457Zm.041,4.381v-3.475h.334v3.475Z" transform="translate(-180.593 -162.136)" fill="#696969"/>
        <path id="Caminho_127" data-name="Caminho 127" d="M214.915,168.5v-.579a1.7,1.7,0,0,1-.214.242,1.443,1.443,0,0,1-.29.211,1.678,1.678,0,0,1-.371.15,1.7,1.7,0,0,1-.454.058,1.742,1.742,0,0,1-.483-.069,1.406,1.406,0,0,1-.429-.2,1.087,1.087,0,0,1-.31-.341.925.925,0,0,1-.12-.477v-.014a1.019,1.019,0,0,1,.112-.484,1.036,1.036,0,0,1,.31-.354,1.44,1.44,0,0,1,.477-.218,2.385,2.385,0,0,1,.62-.075,4.312,4.312,0,0,1,.634.041,4.778,4.778,0,0,1,.517.109v-.149a1,1,0,0,0-.3-.792,1.24,1.24,0,0,0-.842-.265,2.076,2.076,0,0,0-.586.078,2.9,2.9,0,0,0-.5.2l-.122-.293a3.492,3.492,0,0,1,.579-.223,2.371,2.371,0,0,1,.653-.084,1.554,1.554,0,0,1,1.063.341,1.286,1.286,0,0,1,.389,1.022V168.5Zm.007-1.7q-.218-.054-.511-.105a3.915,3.915,0,0,0-.667-.051,1.4,1.4,0,0,0-.849.221.7.7,0,0,0-.3.586v.014a.678.678,0,0,0,.082.336.772.772,0,0,0,.221.247,1.043,1.043,0,0,0,.324.156,1.331,1.331,0,0,0,.382.054,1.615,1.615,0,0,0,.5-.078,1.375,1.375,0,0,0,.419-.217,1.052,1.052,0,0,0,.286-.336.906.906,0,0,0,.105-.434Z" transform="translate(-182.078 -163.521)" fill="#696969"/>
        <path id="Caminho_128" data-name="Caminho 128" d="M227.748,166.966v-.777a3.132,3.132,0,0,1-.256.327,1.589,1.589,0,0,1-.7.46,1.494,1.494,0,0,1-.474.072,1.634,1.634,0,0,1-.617-.123,1.665,1.665,0,0,1-.542-.354,1.766,1.766,0,0,1-.385-.569,1.891,1.891,0,0,1-.147-.76v-.014a1.889,1.889,0,0,1,.147-.76,1.8,1.8,0,0,1,.385-.572,1.686,1.686,0,0,1,.542-.361,1.584,1.584,0,0,1,.617-.126,1.6,1.6,0,0,1,.477.068,1.523,1.523,0,0,1,.392.184,1.757,1.757,0,0,1,.313.266,2.456,2.456,0,0,1,.249.313v-2.249h.334v4.974Zm.021-1.744a1.51,1.51,0,0,0-.12-.61,1.435,1.435,0,0,0-.772-.773,1.333,1.333,0,0,0-.529-.109,1.4,1.4,0,0,0-.536.1,1.267,1.267,0,0,0-.434.292,1.377,1.377,0,0,0-.291.467,1.735,1.735,0,0,0-.105.623v.014a1.676,1.676,0,0,0,.109.62,1.4,1.4,0,0,0,.3.473,1.327,1.327,0,0,0,.96.406,1.333,1.333,0,0,0,.529-.109,1.426,1.426,0,0,0,.455-.307,1.5,1.5,0,0,0,.437-1.076Z" transform="translate(-188.444 -161.992)" fill="#696969"/>
        <path id="Caminho_129" data-name="Caminho 129" d="M234.353,167.441a1.5,1.5,0,0,0,.308.427,1.26,1.26,0,0,0,.42.268,1.355,1.355,0,0,0,.5.091,1.416,1.416,0,0,0,.693-.156,2.052,2.052,0,0,0,.5-.389l.231.2a2.422,2.422,0,0,1-.6.474,1.712,1.712,0,0,1-.836.188,1.679,1.679,0,0,1-.653-.13,1.642,1.642,0,0,1-.547-.368,1.743,1.743,0,0,1-.372-.572,1.947,1.947,0,0,1-.137-.742v-.014a1.963,1.963,0,0,1,.126-.705,1.83,1.83,0,0,1,.348-.576,1.657,1.657,0,0,1,.521-.388,1.5,1.5,0,0,1,.654-.143,1.516,1.516,0,0,1,.661.14,1.5,1.5,0,0,1,.5.385,1.746,1.746,0,0,1,.32.576,2.207,2.207,0,0,1,.113.719v.075a.387.387,0,0,1-.007.061H234.21A1.52,1.52,0,0,0,234.353,167.441Zm2.391-.877a2,2,0,0,0-.106-.508,1.413,1.413,0,0,0-.24-.429,1.139,1.139,0,0,0-.379-.3,1.244,1.244,0,0,0-1.011-.011,1.218,1.218,0,0,0-.393.283,1.538,1.538,0,0,0-.277.429,1.6,1.6,0,0,0-.13.535Z" transform="translate(-193.189 -163.492)" fill="#696969"/>
        <path id="Caminho_130" data-name="Caminho 130" d="M152.737,179.569a1.583,1.583,0,0,1-.814.2,1.67,1.67,0,0,1-.7-.147,1.8,1.8,0,0,1-.562-.392,1.774,1.774,0,0,1-.371-.572,1.815,1.815,0,0,1-.134-.695v-.014a1.817,1.817,0,0,1,.134-.7,1.867,1.867,0,0,1,.371-.579,1.754,1.754,0,0,1,.562-.4,1.663,1.663,0,0,1,.7-.147,1.741,1.741,0,0,1,.446.053,1.69,1.69,0,0,1,.372.142,1.816,1.816,0,0,1,.31.207,3.074,3.074,0,0,1,.262.245l-.239.245a2.63,2.63,0,0,0-.5-.4,1.222,1.222,0,0,0-.661-.171,1.329,1.329,0,0,0-.555.116,1.364,1.364,0,0,0-.443.315,1.494,1.494,0,0,0-.3.472,1.547,1.547,0,0,0-.109.584v.013a1.54,1.54,0,0,0,.419,1.066,1.421,1.421,0,0,0,.453.318,1.354,1.354,0,0,0,.559.116,1.288,1.288,0,0,0,.657-.167,2.03,2.03,0,0,0,.508-.412l.232.2A2.459,2.459,0,0,1,152.737,179.569Z" transform="translate(-150.158 -169.26)" fill="#696969"/>
        <path id="Caminho_131" data-name="Caminho 131" d="M161.394,178.643a1.805,1.805,0,0,1-.944.978,1.729,1.729,0,0,1-.716.147,1.707,1.707,0,0,1-.712-.147,1.813,1.813,0,0,1-.562-.392,1.757,1.757,0,0,1-.371-.572,1.832,1.832,0,0,1-.133-.695v-.014a1.835,1.835,0,0,1,.133-.7,1.816,1.816,0,0,1,.375-.579,1.8,1.8,0,0,1,.569-.4,1.721,1.721,0,0,1,.716-.147,1.7,1.7,0,0,1,.712.147,1.806,1.806,0,0,1,.562.392,1.752,1.752,0,0,1,.371.572,1.831,1.831,0,0,1,.133.695v.014A1.833,1.833,0,0,1,161.394,178.643Zm-.221-.7a1.571,1.571,0,0,0-.11-.586,1.458,1.458,0,0,0-.3-.478,1.411,1.411,0,0,0-.459-.319,1.39,1.39,0,0,0-.565-.116,1.372,1.372,0,0,0-.571.119,1.407,1.407,0,0,0-.452.319,1.45,1.45,0,0,0-.294.471,1.563,1.563,0,0,0-.106.577v.013a1.572,1.572,0,0,0,.11.587,1.478,1.478,0,0,0,.3.479,1.419,1.419,0,0,0,.459.318,1.39,1.39,0,0,0,.565.116,1.369,1.369,0,0,0,.572-.119,1.409,1.409,0,0,0,.452-.319,1.463,1.463,0,0,0,.294-.471,1.584,1.584,0,0,0,.106-.577Z" transform="translate(-154.167 -169.26)" fill="#696969"/>
        <path id="Caminho_132" data-name="Caminho 132" d="M172.342,179.685v-2.064a1.284,1.284,0,0,0-.273-.876.955.955,0,0,0-.757-.31,1.1,1.1,0,0,0-.419.082,1,1,0,0,0-.351.239,1.153,1.153,0,0,0-.239.385,1.442,1.442,0,0,0-.089.521v2.024h-.334V177.6a1.251,1.251,0,0,0-.273-.855.938.938,0,0,0-.742-.31,1.014,1.014,0,0,0-.436.1,1.072,1.072,0,0,0-.354.265,1.268,1.268,0,0,0-.235.4,1.366,1.366,0,0,0-.086.491v2h-.334V176.21h.334v.62a2,2,0,0,1,.188-.262,1.327,1.327,0,0,1,.241-.224,1.128,1.128,0,0,1,.317-.157,1.358,1.358,0,0,1,.413-.058,1.32,1.32,0,0,1,.412.062,1.209,1.209,0,0,1,.331.164,1.171,1.171,0,0,1,.249.239,1.773,1.773,0,0,1,.18.286,1.889,1.889,0,0,1,.2-.279,1.388,1.388,0,0,1,.27-.242,1.306,1.306,0,0,1,.347-.167,1.459,1.459,0,0,1,.439-.062,1.419,1.419,0,0,1,.556.106,1.222,1.222,0,0,1,.422.293,1.257,1.257,0,0,1,.266.457,1.823,1.823,0,0,1,.092.6v2.105Z" transform="translate(-159.034 -169.26)" fill="#696969"/>
        <path id="Caminho_133" data-name="Caminho 133" d="M183.262,179.772v-.647a1.626,1.626,0,0,1-.477.518,1.324,1.324,0,0,1-.777.211,1.538,1.538,0,0,1-.586-.106,1.229,1.229,0,0,1-.44-.3,1.243,1.243,0,0,1-.273-.453,1.728,1.728,0,0,1-.092-.575V176.3h.334v2.064a1.254,1.254,0,0,0,.286.862,1.034,1.034,0,0,0,.818.324,1.227,1.227,0,0,0,.474-.092,1.185,1.185,0,0,0,.385-.256,1.162,1.162,0,0,0,.256-.392,1.33,1.33,0,0,0,.092-.5V176.3h.334v3.475Z" transform="translate(-165.818 -169.347)" fill="#696969"/>
        <path id="Caminho_134" data-name="Caminho 134" d="M192,179.685v-2.064a1.254,1.254,0,0,0-.286-.862,1.035,1.035,0,0,0-.818-.324,1.218,1.218,0,0,0-.477.092,1.156,1.156,0,0,0-.637.647,1.333,1.333,0,0,0-.092.5v2.01h-.334V176.21h.334v.647a1.621,1.621,0,0,1,.477-.518,1.32,1.32,0,0,1,.776-.211,1.554,1.554,0,0,1,.586.106,1.228,1.228,0,0,1,.712.75,1.73,1.73,0,0,1,.092.575v2.126Z" transform="translate(-170.311 -169.26)" fill="#696969"/>
        <path id="Caminho_135" data-name="Caminho 135" d="M197.967,173.949v-.457h.415v.457Zm.041,4.381v-3.475h.334v3.475Z" transform="translate(-174.738 -167.904)" fill="#696969"/>
        <path id="Caminho_136" data-name="Caminho 136" d="M203.533,179.569a1.583,1.583,0,0,1-.814.2,1.674,1.674,0,0,1-.7-.147,1.806,1.806,0,0,1-.562-.392,1.78,1.78,0,0,1-.371-.572,1.815,1.815,0,0,1-.134-.695v-.014a1.817,1.817,0,0,1,.134-.7,1.874,1.874,0,0,1,.371-.579,1.759,1.759,0,0,1,.562-.4,1.667,1.667,0,0,1,.7-.147,1.744,1.744,0,0,1,.446.053,1.7,1.7,0,0,1,.372.142,1.79,1.79,0,0,1,.309.207,2.992,2.992,0,0,1,.262.245l-.238.245a2.619,2.619,0,0,0-.5-.4,1.219,1.219,0,0,0-.661-.171,1.325,1.325,0,0,0-.555.116,1.361,1.361,0,0,0-.443.315,1.5,1.5,0,0,0-.3.472,1.547,1.547,0,0,0-.109.584v.013a1.54,1.54,0,0,0,.419,1.066,1.428,1.428,0,0,0,.453.318,1.352,1.352,0,0,0,.559.116,1.287,1.287,0,0,0,.657-.167,2.032,2.032,0,0,0,.508-.412l.231.2A2.466,2.466,0,0,1,203.533,179.569Z" transform="translate(-176.273 -169.26)" fill="#696969"/>
        <path id="Caminho_137" data-name="Caminho 137" d="M211.535,179.714v-.579a1.676,1.676,0,0,1-.215.242,1.445,1.445,0,0,1-.29.211,1.667,1.667,0,0,1-.825.208,1.76,1.76,0,0,1-.483-.068,1.408,1.408,0,0,1-.429-.2,1.082,1.082,0,0,1-.31-.341.923.923,0,0,1-.12-.477v-.014a1.016,1.016,0,0,1,.112-.484,1.037,1.037,0,0,1,.31-.354,1.439,1.439,0,0,1,.477-.218,2.386,2.386,0,0,1,.62-.075,4.25,4.25,0,0,1,.634.041,4.677,4.677,0,0,1,.517.109v-.149a1,1,0,0,0-.3-.793,1.242,1.242,0,0,0-.842-.264,2.06,2.06,0,0,0-.586.078,2.88,2.88,0,0,0-.5.2l-.122-.293a3.55,3.55,0,0,1,.58-.223,2.371,2.371,0,0,1,.653-.084,1.554,1.554,0,0,1,1.063.341,1.284,1.284,0,0,1,.389,1.022v2.167Zm.007-1.7q-.218-.055-.511-.105a3.869,3.869,0,0,0-.668-.052,1.4,1.4,0,0,0-.848.221.7.7,0,0,0-.3.587v.014a.681.681,0,0,0,.082.336.77.77,0,0,0,.222.248,1.065,1.065,0,0,0,.324.156,1.348,1.348,0,0,0,.382.054,1.614,1.614,0,0,0,.5-.078,1.394,1.394,0,0,0,.419-.217,1.054,1.054,0,0,0,.286-.336.9.9,0,0,0,.105-.434Z" transform="translate(-180.34 -169.289)" fill="#696969"/>
        <path id="Caminho_138" data-name="Caminho 138" d="M217.928,179.552a1.759,1.759,0,0,1-.486-.4,1.878,1.878,0,0,1-.3-1.894,1.86,1.86,0,0,1,.371-.583,1.76,1.76,0,0,1,.562-.4,1.667,1.667,0,0,1,.7-.147,1.743,1.743,0,0,1,.446.053,1.687,1.687,0,0,1,.371.142,1.8,1.8,0,0,1,.31.207,3,3,0,0,1,.262.245l-.239.245a2.616,2.616,0,0,0-.5-.4,1.221,1.221,0,0,0-.661-.171,1.34,1.34,0,0,0-1,.434,1.523,1.523,0,0,0-.3.475,1.567,1.567,0,0,0,.309,1.655,1.428,1.428,0,0,0,.453.318,1.352,1.352,0,0,0,.559.116,1.287,1.287,0,0,0,.657-.167,2.042,2.042,0,0,0,.508-.412l.231.2a2.66,2.66,0,0,1-.572.481,1.568,1.568,0,0,1-.763.215l-.456.927-.375-.177.517-.763A1.641,1.641,0,0,1,217.928,179.552Z" transform="translate(-184.529 -169.26)" fill="#696969"/>
        <path id="Caminho_139" data-name="Caminho 139" d="M227.593,178.423v-.579a1.712,1.712,0,0,1-.215.242,1.443,1.443,0,0,1-.29.211,1.666,1.666,0,0,1-.825.208,1.761,1.761,0,0,1-.483-.068,1.409,1.409,0,0,1-.43-.2,1.089,1.089,0,0,1-.31-.341.927.927,0,0,1-.119-.477V177.4a1.016,1.016,0,0,1,.112-.484,1.037,1.037,0,0,1,.31-.354,1.44,1.44,0,0,1,.477-.218,2.386,2.386,0,0,1,.62-.075,4.249,4.249,0,0,1,.634.041,4.675,4.675,0,0,1,.518.109v-.149a1,1,0,0,0-.3-.793,1.24,1.24,0,0,0-.842-.264,2.059,2.059,0,0,0-.586.078,2.881,2.881,0,0,0-.5.2l-.122-.293a3.563,3.563,0,0,1,.579-.223,2.374,2.374,0,0,1,.654-.084,1.555,1.555,0,0,1,1.063.341,1.285,1.285,0,0,1,.389,1.022v2.167Zm.007-1.7q-.218-.055-.511-.105a3.867,3.867,0,0,0-.668-.052,1.4,1.4,0,0,0-.848.221.7.7,0,0,0-.3.587v.014a.68.68,0,0,0,.082.336.77.77,0,0,0,.222.248,1.065,1.065,0,0,0,.324.156,1.349,1.349,0,0,0,.382.054,1.609,1.609,0,0,0,.5-.078,1.393,1.393,0,0,0,.419-.217,1.061,1.061,0,0,0,.286-.336.9.9,0,0,0,.105-.434Zm-.273-2.491a.468.468,0,0,1-.341.133.608.608,0,0,1-.211-.044q-.116-.044-.235-.1l-.228-.1a.529.529,0,0,0-.2-.044.262.262,0,0,0-.194.072.794.794,0,0,0-.146.269l-.232-.061a1.106,1.106,0,0,1,.232-.5.468.468,0,0,1,.341-.133.6.6,0,0,1,.211.044c.077.029.155.061.235.1s.155.066.228.1a.518.518,0,0,0,.2.044.261.261,0,0,0,.194-.071.8.8,0,0,0,.146-.269l.232.062A1.1,1.1,0,0,1,227.327,174.236Z" transform="translate(-188.596 -167.998)" fill="#696969"/>
        <path id="Caminho_140" data-name="Caminho 140" d="M236.507,178.643a1.8,1.8,0,0,1-.944.978,1.728,1.728,0,0,1-.715.147,1.705,1.705,0,0,1-.712-.147,1.8,1.8,0,0,1-.562-.392,1.751,1.751,0,0,1-.372-.572,1.833,1.833,0,0,1-.133-.695v-.014a1.827,1.827,0,0,1,.508-1.274,1.8,1.8,0,0,1,.569-.4,1.72,1.72,0,0,1,.715-.147,1.7,1.7,0,0,1,.712.147,1.8,1.8,0,0,1,.562.392,1.754,1.754,0,0,1,.372.572,1.831,1.831,0,0,1,.133.695v.014A1.834,1.834,0,0,1,236.507,178.643Zm-.222-.7a1.561,1.561,0,0,0-.11-.586,1.465,1.465,0,0,0-.3-.478,1.412,1.412,0,0,0-.459-.319,1.437,1.437,0,0,0-1.136,0,1.405,1.405,0,0,0-.452.319,1.452,1.452,0,0,0-.294.471,1.562,1.562,0,0,0-.106.577v.013a1.572,1.572,0,0,0,.11.587,1.478,1.478,0,0,0,.3.479,1.421,1.421,0,0,0,.459.318,1.386,1.386,0,0,0,.565.116,1.369,1.369,0,0,0,.572-.119,1.4,1.4,0,0,0,.452-.319,1.454,1.454,0,0,0,.294-.471,1.574,1.574,0,0,0,.106-.577Z" transform="translate(-192.785 -169.26)" fill="#696969"/>
      </g>
    </g>
  </g>
</svg>
