<svg xmlns="http://www.w3.org/2000/svg" width="168" height="82.91" viewBox="0 0 168 82.91">
  <g id="Grupo_65" data-name="Grupo 65" transform="translate(-599 -4272.123)">
    <path id="Caminho_141" data-name="Caminho 141" d="M553.708,305.374c-1.847,0-3.76-.074-5.684-.219-.643-.049-1.292-.081-1.939-.1,7.459,5.439,15.809,10.715,27.722,11.983a22.5,22.5,0,0,0,2.382.128c10.672,0,18.489-7.868,26.049-15.477,7.072-7.119,13.755-13.845,22.382-13.957-5.9-4.731-11.065-6.94-16.184-6.94-5.782,0-11.064,2.849-17.207,7.132C584.574,299.016,570.9,305.374,553.708,305.374Z" transform="translate(116.396 3995.201)" fill="#65a949"/>
    <g id="Grupo_61" data-name="Grupo 61" transform="translate(639.172 4345.834)">
      <path id="Caminho_142" data-name="Caminho 142" d="M421.608,506.036a2.277,2.277,0,0,1,2.272-2.588,2.824,2.824,0,0,1,1.378.3l.075.652a2.712,2.712,0,0,0-1.359-.344,1.7,1.7,0,0,0-1.713,1.918c0,1.5.856,1.964,1.741,1.964a3,3,0,0,0,1.34-.288l-.093.624a2.961,2.961,0,0,1-1.359.279A2.2,2.2,0,0,1,421.608,506.036Z" transform="translate(-421.608 -501.185)" fill="#65a949"/>
      <path id="Caminho_143" data-name="Caminho 143" d="M436.644,505.988c0-1.592.9-2.57,2.207-2.57,1.4,0,2.216.968,2.216,2.551,0,1.564-.866,2.57-2.225,2.57C437.454,508.539,436.644,507.58,436.644,505.988Zm3.771-.018c0-1.238-.633-1.964-1.564-1.964s-1.555.708-1.555,1.955c0,1.322.661,1.992,1.564,1.992C439.791,507.952,440.415,507.254,440.415,505.969Z" transform="translate(-431.775 -501.165)" fill="#65a949"/>
      <path id="Caminho_144" data-name="Caminho 144" d="M456.042,504.658v3.808h-.652v-4.934h.521l.121.512a2,2,0,0,1,1.434-.6c1.08,0,1.713.6,1.713,1.927v3.091h-.652v-2.961c0-1.08-.419-1.424-1.155-1.424A1.92,1.92,0,0,0,456.042,504.658Z" transform="translate(-444.451 -501.185)" fill="#65a949"/>
      <path id="Caminho_145" data-name="Caminho 145" d="M472.148,508.138l-.111-.717a2.741,2.741,0,0,0,1.583.5c.7,0,1.136-.261,1.136-.838,0-.372-.14-.623-.95-.875l-.223-.065c-.95-.289-1.331-.633-1.331-1.378,0-.866.614-1.35,1.573-1.35a2.678,2.678,0,0,1,1.238.279l.093.661a2.81,2.81,0,0,0-1.313-.354c-.623,0-.959.279-.959.735,0,.419.214.615.875.819l.2.065c1.136.354,1.424.717,1.424,1.415,0,.959-.661,1.481-1.75,1.481A2.758,2.758,0,0,1,472.148,508.138Z" transform="translate(-455.707 -501.165)" fill="#65a949"/>
      <path id="Caminho_146" data-name="Caminho 146" d="M490.536,508.129a2,2,0,0,1-1.434.6c-1.08,0-1.713-.6-1.713-1.927v-3.091h.651v2.961c0,1.08.419,1.424,1.154,1.424a1.918,1.918,0,0,0,1.332-.578v-3.808h.652v4.934h-.522Z" transform="translate(-466.087 -501.36)" fill="#65a949"/>
      <path id="Caminho_147" data-name="Caminho 147" d="M505.645,496.663h.652v7.215h-.652Z" transform="translate(-478.432 -496.598)" fill="#65a949"/>
      <path id="Caminho_148" data-name="Caminho 148" d="M514.795,505.818c-.81,0-1.359-.335-1.359-1.462v-3.035h-.662v-.531h.662v-1.4h.652v1.4h1.48v.531h-1.48v2.97c0,.652.223.9.819.9a2.166,2.166,0,0,0,.726-.14l-.112.624A1.711,1.711,0,0,1,514.795,505.818Z" transform="translate(-483.252 -498.444)" fill="#65a949"/>
      <path id="Caminho_149" data-name="Caminho 149" d="M525.511,505.988c0-1.592.9-2.57,2.207-2.57,1.4,0,2.216.968,2.216,2.551,0,1.564-.866,2.57-2.225,2.57C526.321,508.539,525.511,507.58,525.511,505.988Zm3.771-.018c0-1.238-.633-1.964-1.564-1.964s-1.555.708-1.555,1.955c0,1.322.661,1.992,1.564,1.992C528.658,507.952,529.282,507.254,529.282,505.969Z" transform="translate(-491.864 -501.165)" fill="#65a949"/>
      <path id="Caminho_150" data-name="Caminho 150" d="M544.765,504.861v3.584h-.652v-4.934h.512l.131.8a2.457,2.457,0,0,1,1.918-.894l.028.624A3.026,3.026,0,0,0,544.765,504.861Z" transform="translate(-504.443 -501.165)" fill="#65a949"/>
      <path id="Caminho_151" data-name="Caminho 151" d="M555.9,497.208h.876v.922H555.9Zm.112,2.1h.652v4.934h-.652Z" transform="translate(-512.413 -496.966)" fill="#65a949"/>
      <path id="Caminho_152" data-name="Caminho 152" d="M566.685,507.945a2.09,2.09,0,0,1-1.508.614c-.931,0-1.63-.41-1.63-1.443,0-1.071.95-1.658,3.1-1.8a1.158,1.158,0,0,0-1.3-1.257,2.18,2.18,0,0,0-1.462.54l.13-.745a2.346,2.346,0,0,1,1.4-.409,1.7,1.7,0,0,1,1.89,1.871v3.147h-.493Zm-1.359.056a1.9,1.9,0,0,0,1.322-.578v-1.6c-1.675.121-2.448.54-2.448,1.276C564.2,507.693,564.581,508,565.326,508Z" transform="translate(-517.583 -501.185)" fill="#65a949"/>
      <path id="Caminho_153" data-name="Caminho 153" d="M591.137,508.55c-1.238,0-2.318-.671-2.318-2.542,0-1.722,1.024-2.56,2.207-2.56,1.359,0,2,.94,2,2.616h-3.557c.037,1.461.838,1.881,1.713,1.881a2.818,2.818,0,0,0,1.546-.41l-.093.68A2.885,2.885,0,0,1,591.137,508.55Zm-1.638-3.026h2.923c-.13-1.014-.586-1.5-1.4-1.5A1.522,1.522,0,0,0,589.5,505.524Z" transform="translate(-534.672 -501.185)" fill="#65a949"/>
      <path id="Caminho_154" data-name="Caminho 154" d="M607.3,504.63v3.836h-.651v-4.934h.521l.112.484a1.831,1.831,0,0,1,1.322-.568,1.533,1.533,0,0,1,1.48.745,2.007,2.007,0,0,1,1.546-.745c1.108,0,1.722.586,1.722,1.9v3.119H612.7v-2.961c0-1.08-.419-1.424-1.154-1.424a1.877,1.877,0,0,0-1.294.559,3.248,3.248,0,0,1,.074.708v3.119h-.651v-2.961c0-1.08-.419-1.424-1.154-1.424A1.688,1.688,0,0,0,607.3,504.63Z" transform="translate(-546.725 -501.185)" fill="#65a949"/>
      <path id="Caminho_155" data-name="Caminho 155" d="M643.327,510.384a3.368,3.368,0,0,1-1.648-.4l-.121-.745a3.161,3.161,0,0,0,1.778.559c1.043,0,1.462-.465,1.462-1.769v-.2a2.223,2.223,0,0,1-1.369.428,2.074,2.074,0,0,1-2.169-2.374,2.243,2.243,0,0,1,2.319-2.439,2.609,2.609,0,0,1,1.368.354l.112-.27h.4l-.01,4.31C645.449,509.909,644.631,510.384,643.327,510.384Zm.186-2.719a1.791,1.791,0,0,0,1.285-.484l.009-2.793a2.176,2.176,0,0,0-1.219-.335,1.636,1.636,0,0,0-1.676,1.834A1.578,1.578,0,0,0,643.513,507.666Z" transform="translate(-570.131 -501.185)" fill="#65a949"/>
      <path id="Caminho_156" data-name="Caminho 156" d="M662.683,503.221a2.092,2.092,0,0,1-1.508.614c-.931,0-1.63-.41-1.63-1.443,0-1.071.95-1.658,3.1-1.8a1.159,1.159,0,0,0-1.3-1.257,2.18,2.18,0,0,0-1.461.54l.13-.745a2.348,2.348,0,0,1,1.4-.409,1.7,1.7,0,0,1,1.89,1.871v3.147H662.8Zm-1.359.056a1.9,1.9,0,0,0,1.322-.578v-1.6c-1.676.121-2.449.54-2.449,1.276C660.2,502.969,660.579,503.276,661.323,503.276Zm.968-6.815h.782l-1.312,1.48h-.652Z" transform="translate(-582.495 -496.461)" fill="#65a949"/>
      <path id="Caminho_157" data-name="Caminho 157" d="M676.159,508.138l-.111-.717a2.741,2.741,0,0,0,1.583.5c.7,0,1.136-.261,1.136-.838,0-.372-.14-.623-.95-.875l-.224-.065c-.949-.289-1.331-.633-1.331-1.378,0-.866.615-1.35,1.574-1.35a2.679,2.679,0,0,1,1.238.279l.093.661a2.81,2.81,0,0,0-1.313-.354c-.624,0-.959.279-.959.735,0,.419.214.615.875.819l.205.065c1.135.354,1.424.717,1.424,1.415,0,.959-.661,1.481-1.75,1.481A2.758,2.758,0,0,1,676.159,508.138Z" transform="translate(-593.654 -501.165)" fill="#65a949"/>
      <path id="Caminho_158" data-name="Caminho 158" d="M701.108,504.658v3.808h-.652v-4.934h.522l.121.512a2,2,0,0,1,1.434-.6c1.08,0,1.713.6,1.713,1.927v3.091h-.652v-2.961c0-1.08-.419-1.424-1.154-1.424A1.917,1.917,0,0,0,701.108,504.658Z" transform="translate(-610.158 -501.185)" fill="#65a949"/>
      <path id="Caminho_159" data-name="Caminho 159" d="M720.47,507.945a2.092,2.092,0,0,1-1.508.614c-.931,0-1.629-.41-1.629-1.443,0-1.071.95-1.658,3.1-1.8a1.159,1.159,0,0,0-1.3-1.257,2.18,2.18,0,0,0-1.461.54l.13-.745a2.349,2.349,0,0,1,1.4-.409,1.7,1.7,0,0,1,1.89,1.871v3.147h-.494ZM719.11,508a1.9,1.9,0,0,0,1.322-.578v-1.6c-1.676.121-2.449.54-2.449,1.276C717.984,507.693,718.366,508,719.11,508Z" transform="translate(-621.569 -501.185)" fill="#65a949"/>
      <path id="Caminho_160" data-name="Caminho 160" d="M735.653,505.818c-.81,0-1.359-.335-1.359-1.462v-3.035h-.661v-.531h.661v-1.4h.652v1.4h1.48v.531h-1.48v2.97c0,.652.223.9.819.9a2.168,2.168,0,0,0,.726-.14l-.112.624A1.712,1.712,0,0,1,735.653,505.818Z" transform="translate(-632.591 -498.444)" fill="#65a949"/>
      <path id="Caminho_161" data-name="Caminho 161" d="M750.609,508.129a2,2,0,0,1-1.434.6c-1.08,0-1.713-.6-1.713-1.927v-3.091h.652v2.961c0,1.08.419,1.424,1.154,1.424a1.918,1.918,0,0,0,1.331-.578v-3.808h.652v4.934h-.521Z" transform="translate(-641.942 -501.36)" fill="#65a949"/>
      <path id="Caminho_162" data-name="Caminho 162" d="M766,504.861v3.584h-.652v-4.934h.513l.13.8a2.458,2.458,0,0,1,1.918-.894l.028.624A3.024,3.024,0,0,0,766,504.861Z" transform="translate(-654.033 -501.165)" fill="#65a949"/>
      <path id="Caminho_163" data-name="Caminho 163" d="M779.637,507.945a2.091,2.091,0,0,1-1.508.614c-.931,0-1.63-.41-1.63-1.443,0-1.071.95-1.658,3.1-1.8a1.159,1.159,0,0,0-1.3-1.257,2.179,2.179,0,0,0-1.461.54l.13-.745a2.348,2.348,0,0,1,1.4-.409,1.7,1.7,0,0,1,1.89,1.871v3.147h-.493Zm-1.359.056a1.9,1.9,0,0,0,1.322-.578v-1.6c-1.676.121-2.449.54-2.449,1.276C777.151,507.693,777.533,508,778.277,508Z" transform="translate(-661.576 -501.185)" fill="#65a949"/>
      <path id="Caminho_164" data-name="Caminho 164" d="M794.468,496.663h.652v7.215h-.652Z" transform="translate(-673.726 -496.598)" fill="#65a949"/>
    </g>
    <path id="Caminho_165" data-name="Caminho 165" d="M350.05,418.373c0-8.419,4.6-12.926,11.149-12.926a11.807,11.807,0,0,1,6.084,1.514l.461,2.664a10.373,10.373,0,0,0-6.315-1.941c-5.69,0-9.011,4.046-9.011,10.26,0,7.334,4.209,10.163,8.946,10.163a11.235,11.235,0,0,0,6.643-2.006l-.394,2.565a12.422,12.422,0,0,1-6.676,1.611C355.378,430.277,350.05,426.989,350.05,418.373Z" transform="translate(248.95 3910.915)" fill="#65a949"/>
    <path id="Caminho_166" data-name="Caminho 166" d="M418.084,435.039c0-5.624,3.191-9.077,7.794-9.077,4.933,0,7.828,3.42,7.828,9.011,0,5.525-3.059,9.077-7.86,9.077C420.946,444.05,418.084,440.664,418.084,435.039Zm13.32-.065c0-4.375-2.237-6.939-5.526-6.939-3.256,0-5.491,2.5-5.491,6.905,0,4.67,2.335,7.039,5.525,7.039C429.2,441.979,431.4,439.512,431.4,434.973Z" transform="translate(202.947 3897.043)" fill="#65a949"/>
    <g id="Grupo_62" data-name="Grupo 62" transform="translate(622.858 4272.123)">
      <path id="Caminho_167" data-name="Caminho 167" d="M447.864,275.036c-21.647,11.006-24.01,37-24.139,46.308a7.721,7.721,0,0,1,2.65-1.806c4.958-8.689,17.272-25.078,38.985-23.44,29.335,2.214,44.572-12.991,45.8-27.265C486.146,287.9,474.467,261.511,447.864,275.036Z" transform="translate(-423.725 -268.834)" fill="#65a949"/>
    </g>
    <path id="Caminho_168" data-name="Caminho 168" d="M486.6,430.34v13.452h-2.3V426.36h1.841l.428,1.809a7.061,7.061,0,0,1,5.064-2.1c3.815,0,6.051,2.1,6.051,6.808v10.918h-2.3V433.332c0-3.814-1.48-5.031-4.078-5.031A6.773,6.773,0,0,0,486.6,430.34Z" transform="translate(158.178 3896.973)" fill="#65a949"/>
    <path id="Caminho_169" data-name="Caminho 169" d="M543.481,442.636l-.395-2.532a9.676,9.676,0,0,0,5.591,1.776c2.467,0,4.013-.921,4.013-2.961,0-1.315-.493-2.2-3.355-3.091l-.789-.231c-3.355-1.018-4.7-2.235-4.7-4.867,0-3.058,2.17-4.769,5.557-4.769a9.463,9.463,0,0,1,4.374.986l.329,2.335a9.956,9.956,0,0,0-4.637-1.249c-2.2,0-3.388.987-3.388,2.6,0,1.481.757,2.171,3.091,2.894l.724.231c4.013,1.25,5.032,2.532,5.032,5,0,3.387-2.334,5.229-6.182,5.229A9.745,9.745,0,0,1,543.481,442.636Z" transform="translate(118.424 3897.043)" fill="#65a949"/>
    <path id="Caminho_170" data-name="Caminho 170" d="M608.428,442.6a7.061,7.061,0,0,1-5.064,2.1c-3.816,0-6.051-2.1-6.051-6.807V426.977h2.3v10.459c0,3.815,1.48,5.032,4.078,5.032a6.774,6.774,0,0,0,4.7-2.039V426.977h2.3v17.431h-1.841Z" transform="translate(81.758 3896.357)" fill="#65a949"/>
    <path id="Caminho_171" data-name="Caminho 171" d="M661.792,402.1h2.3v25.488h-2.3Z" transform="translate(38.158 3913.18)" fill="#65a949"/>
    <path id="Caminho_172" data-name="Caminho 172" d="M687.487,419.827c0-8.518,5.82-15.292,14.273-15.292a14.224,14.224,0,0,1,6.61,1.512l-.427,5.229a12.59,12.59,0,0,0-6.216-1.709c-5.722,0-8.748,5.064-8.748,9.6,0,4.308,2.237,5.854,5.1,5.854a6.53,6.53,0,0,0,2.4-.494l2.138-7.827h5.131l-3.06,11.412a16.224,16.224,0,0,1-7.037,1.579C692.419,429.694,687.487,427.424,687.487,419.827Z" transform="translate(20.784 3911.531)" fill="#65a949"/>
    <path id="Caminho_173" data-name="Caminho 173" d="M770.583,441.143a6.819,6.819,0,0,1-4.9,1.843c-3.847,0-6.61-2.5-6.61-7.5,0-6.281,4.013-11.148,10.392-11.148a9.716,9.716,0,0,1,5.491,1.512l1.087-1.085h2.762l-4.769,17.858h-2.829Zm-2.894-2.564a4.334,4.334,0,0,0,2.664-.856l2.3-8.616a7.284,7.284,0,0,0-2.827-.461c-4.013,0-5.624,2.993-5.624,6.117C764.2,437.427,765.486,438.579,767.689,438.579Z" transform="translate(-27.621 3898.141)" fill="#65a949"/>
    <path id="Caminho_174" data-name="Caminho 174" d="M822.638,441.012l.264-4.8a10.4,10.4,0,0,0,6.281,2.828c1.38,0,2.2-.624,2.2-1.677,0-.723-.4-1.282-2.27-2.235l-.329-.2c-2.63-1.282-3.617-2.794-3.617-4.932,0-3.256,2.631-5.657,6.643-5.657a10.422,10.422,0,0,1,5.788,1.677l-.855,4.243a8,8,0,0,0-4.605-1.776c-1.413,0-2.17.658-2.17,1.743,0,.789.361,1.183,2.006,2.039l.361.164c2.8,1.481,3.651,2.6,3.651,4.9,0,3.453-2.894,5.755-6.939,5.755A9.8,9.8,0,0,1,822.638,441.012Z" transform="translate(-70.602 3898.141)" fill="#65a949"/>
  </g>
</svg>
