<svg xmlns="http://www.w3.org/2000/svg" width="119.58" height="59.014" viewBox="0 0 119.58 59.014">
  <g id="Grupo_31" data-name="Grupo 31" transform="translate(-139 -89)">
    <g id="Grupo_30" data-name="Grupo 30" transform="translate(0 37)">
      <path id="Caminho_92" data-name="Caminho 92" d="M485.942,268.834c-.871,10.16-11.717,20.983-32.6,19.407-20.932-1.579-29.594,20.381-29.594,20.381s-1.795-25.745,17.141-35.373,27.248,9.158,45.051-4.414" transform="translate(-267.728 -216.834)" fill="#5a9a40"/>
      <path id="Caminho_93" data-name="Caminho 93" d="M570.8,283.081c-4.337,7.344-14.388,13.247-30.183,12.055a27.751,27.751,0,0,0-3.5-.044c5.77,4.276,12.213,8.868,21.726,9.881,17.077,1.818,24.152-23.121,38.333-20.69-11.129-9.817-18.022-7.048-26.377-1.2" transform="translate(-355 -223.729)" fill="#65a949"/>
    </g>
    <g id="Grupo_29" data-name="Grupo 29" transform="translate(0 37)">
      <path id="Caminho_71" data-name="Caminho 71" d="M474.781,505.29a1.621,1.621,0,0,1,1.617-1.842,2.01,2.01,0,0,1,.981.212l.053.464a1.932,1.932,0,0,0-.968-.245,1.212,1.212,0,0,0-1.219,1.365c0,1.067.609,1.4,1.239,1.4a2.136,2.136,0,0,0,.954-.205l-.066.444a2.105,2.105,0,0,1-.968.2,1.565,1.565,0,0,1-1.624-1.789" transform="translate(-307.031 -397.371)" fill="#fff"/>
      <path id="Caminho_72" data-name="Caminho 72" d="M489.816,505.247a1.608,1.608,0,0,1,1.571-1.829c.994,0,1.577.689,1.577,1.816s-.616,1.829-1.584,1.829c-.987,0-1.564-.682-1.564-1.816m2.684-.013c0-.881-.451-1.4-1.113-1.4s-1.107.5-1.107,1.392c0,.941.47,1.418,1.113,1.418.662,0,1.107-.5,1.107-1.412" transform="translate(-318.601 -397.348)" fill="#fff"/>
      <path id="Caminho_73" data-name="Caminho 73" d="M509.026,504.309v2.71h-.464v-3.512h.371l.086.365a1.422,1.422,0,0,1,1.02-.424c.769,0,1.22.424,1.22,1.372v2.2H510.8v-2.107c0-.768-.3-1.014-.822-1.014a1.366,1.366,0,0,0-.948.411" transform="translate(-333.026 -397.371)" fill="#fff"/>
      <path id="Caminho_74" data-name="Caminho 74" d="M525.288,506.779l-.079-.51a1.948,1.948,0,0,0,1.126.358c.5,0,.809-.186.809-.6,0-.265-.1-.444-.676-.623l-.159-.046c-.676-.205-.948-.451-.948-.981,0-.616.437-.961,1.12-.961a1.909,1.909,0,0,1,.881.2l.066.471a2,2,0,0,0-.935-.252c-.444,0-.683.2-.683.523,0,.3.153.438.623.583l.146.046c.809.252,1.014.511,1.014,1.007,0,.683-.47,1.054-1.246,1.054a1.961,1.961,0,0,1-1.06-.272" transform="translate(-345.836 -397.348)" fill="#fff"/>
      <path id="Caminho_75" data-name="Caminho 75" d="M542.8,506.854a1.423,1.423,0,0,1-1.021.424c-.768,0-1.219-.424-1.219-1.372v-2.2h.464v2.107c0,.769.3,1.014.822,1.014a1.366,1.366,0,0,0,.948-.411v-2.71h.464v3.512h-.371Z" transform="translate(-357.649 -397.569)" fill="#fff"/>
      <rect id="Retângulo_28" data-name="Retângulo 28" width="0.464" height="5.135" transform="translate(187.12 104.514)" fill="#fff"/>
      <path id="Caminho_76" data-name="Caminho 76" d="M567.385,503.966c-.576,0-.968-.239-.968-1.04v-2.16h-.471v-.378h.471v-.994h.464v.994h1.054v.378h-1.054v2.114c0,.464.159.642.583.642a1.546,1.546,0,0,0,.517-.1l-.08.444a1.217,1.217,0,0,1-.516.1" transform="translate(-377.184 -394.251)" fill="#fff"/>
      <path id="Caminho_77" data-name="Caminho 77" d="M578.683,505.247a1.608,1.608,0,0,1,1.571-1.829c.994,0,1.577.689,1.577,1.816s-.616,1.829-1.584,1.829c-.987,0-1.564-.682-1.564-1.816m2.684-.013c0-.881-.451-1.4-1.113-1.4s-1.107.5-1.107,1.392c0,.941.47,1.418,1.113,1.418.662,0,1.107-.5,1.107-1.412" transform="translate(-386.984 -397.348)" fill="#fff"/>
      <path id="Caminho_78" data-name="Caminho 78" d="M597.749,504.445V507h-.464v-3.512h.364l.093.57a1.749,1.749,0,0,1,1.365-.636l.02.444a2.154,2.154,0,0,0-1.379.583" transform="translate(-401.299 -397.348)" fill="#fff"/>
      <path id="Caminho_79" data-name="Caminho 79" d="M609.072,497.208h.623v.657h-.623Zm.08,1.5h.464v3.512h-.464Z" transform="translate(-410.369 -392.569)" fill="#fff"/>
      <path id="Caminho_80" data-name="Caminho 80" d="M618.953,506.649a1.486,1.486,0,0,1-1.073.437c-.663,0-1.16-.292-1.16-1.027,0-.762.676-1.18,2.207-1.279a.824.824,0,0,0-.927-.895,1.552,1.552,0,0,0-1.041.384l.093-.53a1.67,1.67,0,0,1,.994-.291,1.211,1.211,0,0,1,1.345,1.332v2.24h-.351Zm-.968.04a1.35,1.35,0,0,0,.941-.411v-1.14c-1.193.086-1.743.384-1.743.908,0,.424.272.643.8.643" transform="translate(-416.253 -397.371)" fill="#fff"/>
      <path id="Caminho_81" data-name="Caminho 81" d="M643.642,507.08c-.881,0-1.65-.477-1.65-1.81a1.6,1.6,0,0,1,1.57-1.822c.968,0,1.425.669,1.425,1.862h-2.531c.026,1.04.6,1.339,1.219,1.339a2.009,2.009,0,0,0,1.1-.292l-.066.484a2.053,2.053,0,0,1-1.067.239m-1.166-2.154h2.08c-.093-.722-.417-1.067-.994-1.067a1.083,1.083,0,0,0-1.086,1.067" transform="translate(-435.701 -397.371)" fill="#fff"/>
      <path id="Caminho_82" data-name="Caminho 82" d="M660.281,504.289v2.73h-.464v-3.512h.371l.08.345a1.3,1.3,0,0,1,.941-.4,1.092,1.092,0,0,1,1.054.53,1.428,1.428,0,0,1,1.1-.53c.789,0,1.226.417,1.226,1.352v2.22h-.464v-2.107c0-.768-.3-1.014-.822-1.014a1.336,1.336,0,0,0-.921.4,2.3,2.3,0,0,1,.053.5v2.22h-.464v-2.107c0-.768-.3-1.014-.822-1.014a1.2,1.2,0,0,0-.868.391" transform="translate(-449.417 -397.371)" fill="#fff"/>
      <path id="Caminho_83" data-name="Caminho 83" d="M695.9,508.385a2.4,2.4,0,0,1-1.173-.285l-.086-.53a2.25,2.25,0,0,0,1.266.4c.742,0,1.04-.331,1.04-1.259v-.139a1.581,1.581,0,0,1-.974.305,1.476,1.476,0,0,1-1.544-1.69,1.6,1.6,0,0,1,1.65-1.736,1.855,1.855,0,0,1,.974.251l.08-.192h.285l-.007,3.068c0,1.471-.583,1.809-1.511,1.809m.133-1.935a1.274,1.274,0,0,0,.915-.345l.007-1.988a1.548,1.548,0,0,0-.868-.238,1.164,1.164,0,0,0-1.193,1.305,1.123,1.123,0,0,0,1.14,1.266" transform="translate(-476.054 -397.371)" fill="#fff"/>
      <path id="Caminho_84" data-name="Caminho 84" d="M714.951,501.272a1.488,1.488,0,0,1-1.073.437c-.663,0-1.16-.292-1.16-1.027,0-.762.676-1.18,2.207-1.279a.825.825,0,0,0-.928-.895,1.551,1.551,0,0,0-1.04.385l.092-.53a1.671,1.671,0,0,1,.994-.291,1.211,1.211,0,0,1,1.345,1.332v2.24h-.351Zm-.968.04a1.351,1.351,0,0,0,.941-.411v-1.14c-1.193.086-1.743.385-1.743.908,0,.424.272.643.8.643m.689-4.851h.557l-.934,1.054h-.464Z" transform="translate(-490.125 -391.994)" fill="#fff"/>
      <path id="Caminho_85" data-name="Caminho 85" d="M729.3,506.779l-.079-.51a1.949,1.949,0,0,0,1.126.358c.5,0,.809-.186.809-.6,0-.265-.1-.444-.676-.623l-.159-.046c-.676-.205-.948-.451-.948-.981,0-.616.438-.961,1.12-.961a1.911,1.911,0,0,1,.881.2l.066.471a2.005,2.005,0,0,0-.935-.252c-.444,0-.682.2-.682.523,0,.3.153.438.623.583l.146.046c.808.252,1.014.511,1.014,1.007,0,.683-.471,1.054-1.245,1.054a1.961,1.961,0,0,1-1.061-.272" transform="translate(-502.824 -397.348)" fill="#fff"/>
      <path id="Caminho_86" data-name="Caminho 86" d="M754.092,504.309v2.71h-.464v-3.512H754l.086.365a1.422,1.422,0,0,1,1.021-.424c.768,0,1.219.424,1.219,1.372v2.2h-.464v-2.107c0-.768-.3-1.014-.822-1.014a1.364,1.364,0,0,0-.948.411" transform="translate(-521.605 -397.371)" fill="#fff"/>
      <path id="Caminho_87" data-name="Caminho 87" d="M772.738,506.649a1.488,1.488,0,0,1-1.074.437c-.663,0-1.16-.292-1.16-1.027,0-.762.676-1.18,2.207-1.279a.825.825,0,0,0-.928-.895,1.552,1.552,0,0,0-1.04.384l.092-.53a1.672,1.672,0,0,1,.994-.291,1.211,1.211,0,0,1,1.345,1.332v2.24h-.352Zm-.968.04a1.35,1.35,0,0,0,.941-.411v-1.14c-1.193.086-1.743.384-1.743.908,0,.424.272.643.8.643" transform="translate(-534.591 -397.371)" fill="#fff"/>
      <path id="Caminho_88" data-name="Caminho 88" d="M788.243,503.966c-.576,0-.967-.239-.967-1.04v-2.16H786.8v-.378h.471v-.994h.464v.994h1.053v.378H787.74v2.114c0,.464.159.642.583.642a1.549,1.549,0,0,0,.517-.1l-.08.444a1.22,1.22,0,0,1-.517.1" transform="translate(-547.135 -394.251)" fill="#fff"/>
      <path id="Caminho_89" data-name="Caminho 89" d="M802.874,506.854a1.423,1.423,0,0,1-1.02.424c-.769,0-1.219-.424-1.219-1.372v-2.2h.464v2.107c0,.769.3,1.014.822,1.014a1.367,1.367,0,0,0,.948-.411v-2.71h.464v3.512h-.371Z" transform="translate(-557.777 -397.569)" fill="#fff"/>
      <path id="Caminho_90" data-name="Caminho 90" d="M818.98,504.445V507h-.464v-3.512h.365l.093.57a1.75,1.75,0,0,1,1.365-.636l.02.444a2.153,2.153,0,0,0-1.378.583" transform="translate(-571.537 -397.348)" fill="#fff"/>
      <path id="Caminho_91" data-name="Caminho 91" d="M831.9,506.649a1.488,1.488,0,0,1-1.074.437c-.663,0-1.16-.292-1.16-1.027,0-.762.676-1.18,2.207-1.279a.825.825,0,0,0-.928-.895,1.552,1.552,0,0,0-1.04.384l.092-.53a1.672,1.672,0,0,1,.994-.291,1.211,1.211,0,0,1,1.345,1.332v2.24h-.352Zm-.968.04a1.35,1.35,0,0,0,.941-.411v-1.14c-1.193.086-1.743.384-1.743.908,0,.424.272.643.8.643" transform="translate(-580.121 -397.371)" fill="#fff"/>
      <rect id="Retângulo_29" data-name="Retângulo 29" width="0.464" height="5.135" transform="translate(253.692 104.514)" fill="#fff"/>
      <path id="Caminho_94" data-name="Caminho 94" d="M350.05,414.647c0-5.993,3.277-9.2,7.936-9.2a8.4,8.4,0,0,1,4.331,1.077l.328,1.9a7.383,7.383,0,0,0-4.494-1.382c-4.05,0-6.414,2.88-6.414,7.3,0,5.22,3,7.234,6.367,7.234a8,8,0,0,0,4.728-1.428l-.281,1.826a8.842,8.842,0,0,1-4.752,1.147c-3.956,0-7.749-2.341-7.749-8.474" transform="translate(-211.05 -321.958)" fill="#fff"/>
      <path id="Caminho_95" data-name="Caminho 95" d="M418.085,432.422c0-4,2.271-6.461,5.548-6.461,3.511,0,5.571,2.434,5.571,6.414,0,3.933-2.177,6.461-5.595,6.461-3.488,0-5.524-2.411-5.524-6.414m9.481-.046c0-3.114-1.592-4.939-3.933-4.939-2.317,0-3.909,1.778-3.909,4.915,0,3.324,1.662,5.01,3.933,5.01,2.341,0,3.909-1.756,3.909-4.986" transform="translate(-263.403 -337.744)" fill="#fff"/>
      <path id="Caminho_96" data-name="Caminho 96" d="M485.932,429.107v9.575h-1.638V426.274H485.6l.3,1.288a5.025,5.025,0,0,1,3.6-1.5c2.715,0,4.308,1.5,4.308,4.846v7.771h-1.639v-7.444c0-2.715-1.054-3.581-2.9-3.581a4.821,4.821,0,0,0-3.347,1.451" transform="translate(-314.351 -337.823)" fill="#fff"/>
      <path id="Caminho_97" data-name="Caminho 97" d="M543.367,437.831l-.281-1.8a6.887,6.887,0,0,0,3.979,1.264c1.756,0,2.856-.656,2.856-2.108,0-.936-.351-1.568-2.388-2.2l-.561-.164c-2.388-.725-3.347-1.591-3.347-3.464,0-2.177,1.544-3.394,3.956-3.394a6.735,6.735,0,0,1,3.114.7l.234,1.662a7.086,7.086,0,0,0-3.3-.889c-1.568,0-2.411.7-2.411,1.849,0,1.054.539,1.545,2.2,2.06l.515.164c2.856.89,3.581,1.8,3.581,3.558,0,2.411-1.661,3.722-4.4,3.722a6.937,6.937,0,0,1-3.746-.96" transform="translate(-359.592 -337.745)" fill="#fff"/>
      <path id="Caminho_98" data-name="Caminho 98" d="M605.224,438.1a5.025,5.025,0,0,1-3.6,1.5c-2.716,0-4.307-1.5-4.307-4.845v-7.772h1.638v7.444c0,2.716,1.053,3.582,2.9,3.582a4.821,4.821,0,0,0,3.347-1.452v-9.575h1.638v12.407h-1.311Z" transform="translate(-401.319 -338.526)" fill="#fff"/>
      <rect id="Retângulo_30" data-name="Retângulo 30" width="1.638" height="18.142" transform="translate(210.855 82.716)" fill="#fff"/>
      <path id="Caminho_99" data-name="Caminho 99" d="M687.487,415.419c0-6.063,4.143-10.885,10.159-10.885a10.122,10.122,0,0,1,4.7,1.076l-.3,3.722a8.961,8.961,0,0,0-4.424-1.217c-4.073,0-6.227,3.6-6.227,6.835,0,3.067,1.592,4.167,3.628,4.167a4.648,4.648,0,0,0,1.708-.352l1.522-5.571h3.652l-2.178,8.123a11.552,11.552,0,0,1-5.009,1.124c-3.722,0-7.233-1.616-7.233-7.023" transform="translate(-470.709 -321.256)" fill="#fff"/>
      <path id="Caminho_100" data-name="Caminho 100" d="M767.266,436.3a4.854,4.854,0,0,1-3.488,1.312c-2.739,0-4.7-1.78-4.7-5.338,0-4.471,2.856-7.935,7.4-7.935a6.916,6.916,0,0,1,3.909,1.077l.773-.772h1.966l-3.394,12.711h-2.014Zm-2.06-1.825a3.086,3.086,0,0,0,1.9-.609l1.638-6.133a5.183,5.183,0,0,0-2.013-.328c-2.856,0-4,2.13-4,4.354,0,1.9.913,2.716,2.481,2.716" transform="translate(-525.795 -336.494)" fill="#fff"/>
      <path id="Caminho_101" data-name="Caminho 101" d="M822.638,436.206l.188-3.418A7.406,7.406,0,0,0,827.3,434.8c.983,0,1.568-.444,1.568-1.194,0-.515-.282-.913-1.616-1.591l-.234-.141c-1.872-.913-2.575-1.989-2.575-3.511,0-2.318,1.873-4.026,4.729-4.026a7.419,7.419,0,0,1,4.12,1.194l-.608,3.02a5.7,5.7,0,0,0-3.278-1.264c-1.006,0-1.545.468-1.545,1.24,0,.562.257.843,1.428,1.452l.257.117c1.99,1.054,2.6,1.85,2.6,3.488,0,2.458-2.06,4.1-4.939,4.1a6.975,6.975,0,0,1-4.564-1.474" transform="translate(-574.709 -336.494)" fill="#fff"/>
    </g>
  </g>
</svg>
