<svg xmlns="http://www.w3.org/2000/svg" width="1366" height="686.959" viewBox="0 0 1366 686.959">
  <path id="Subtração_1" data-name="Subtração 1" d="M1736.832,686.459c-14.594,0-29.605-.465-44.618-1.38-14.326-.873-29.136-2.186-44.019-3.9-27.5-3.172-55.859-7.741-86.706-13.969-25.748-5.2-53.782-11.688-85.7-19.839-28.5-7.277-57.54-15.213-85.624-22.888l-.012,0-2.623-.717-4.564-1.247c-29.82-8.146-59.023-16.07-88.438-23.478-33.24-8.371-62.814-15.071-90.413-20.482-32.891-6.448-63.434-11.187-93.375-14.487-16.193-1.785-32.378-3.15-48.107-4.059-16.5-.953-33.054-1.436-49.218-1.436-131.615,0-259.914,32.02-392.23,97.889V.5h1365V638.074c-81.892,32.558-163.453,48.384-249.346,48.384h0Z" transform="translate(-620.681 0)" fill="#072f5e" stroke="#fff" stroke-width="1"/>
</svg>
