<svg xmlns="http://www.w3.org/2000/svg" width="1365" height="151.001" viewBox="0 0 1365 151.001">
  <path id="Subtração_15" data-name="Subtração 15" d="M1365,702.5H0v-151H.5V655.959c132.317-65.87,260.617-97.889,392.23-97.889,16.164,0,32.723.483,49.218,1.436,15.734.909,31.919,2.275,48.106,4.059,29.939,3.3,60.483,8.039,93.376,14.488,27.595,5.41,57.169,12.11,90.412,20.481,29.376,7.4,58.6,15.327,88.439,23.478l4.565,1.247,2.622.716.012,0,.1.026.005,0c28.05,7.665,57.056,15.591,85.522,22.86,31.932,8.153,59.966,14.642,85.7,19.839,30.837,6.226,59.2,10.8,86.706,13.969,14.881,1.716,29.691,3.029,44.019,3.9,15.018.915,30.03,1.379,44.618,1.38,85.727,0,167.126-15.763,248.849-48.187V702.5Z" transform="translate(0 -551.499)" fill="#fcfcfc"/>
</svg>
