<?xml version="1.0" encoding="utf-8"?>
<!-- Generator: Adobe Illustrator 24.0.2, SVG Export Plug-In . SVG Version: 6.00 Build 0)  -->
<svg version="1.1" id="Layer_1" xmlns="http://www.w3.org/2000/svg" xmlns:xlink="http://www.w3.org/1999/xlink" x="0px" y="0px"
	 viewBox="0 0 1365 144.4" style="enable-background:new 0 0 1365 144.4;" xml:space="preserve">
<style type="text/css">
	.st0{fill:#FCFCFC;}
</style>
<path id="Subtração_15" class="st0" d="M1365,144.4H0V98C132.3,32.1,261.1,0,392.7,0c16.2,0,32.7,0.5,49.2,1.4
	c15.7,0.9,31.9,2.3,48.1,4.1c29.9,3.3,60.5,8,93.4,14.5c27.6,5.4,57.2,12.1,90.4,20.5c29.4,7.4,58.6,15.3,88.4,23.5l4.6,1.2l2.6,0.7
	h0l0.1,0h0c28,7.7,57.1,15.6,85.5,22.9c31.9,8.2,60,14.6,85.7,19.8c30.8,6.2,59.2,10.8,86.7,14c14.9,1.7,29.7,3,44,3.9
	c15,0.9,30,1.4,44.6,1.4c85.7,0,167.1-15.8,248.8-48.2L1365,144.4L1365,144.4z"/>
</svg>
