<svg xmlns="http://www.w3.org/2000/svg" width="1365" height="1226.958" viewBox="0 0 1365 1226.958">
  <path id="União_5" data-name="União 5" d="M1071.033,1225.578c-14.326-.873-29.137-2.186-44.019-3.9-27.5-3.172-55.859-7.741-86.706-13.969-25.748-5.2-53.782-11.688-85.705-19.839-28.5-7.277-57.54-15.214-85.623-22.888l-.013,0-2.623-.716-4.564-1.247c-29.82-8.146-59.023-16.07-88.438-23.478-33.24-8.371-62.814-15.071-90.413-20.482-32.891-6.448-63.434-11.187-93.375-14.487-16.193-1.785-32.378-3.15-48.107-4.059-16.5-.953-33.054-1.436-49.217-1.436-131.614,0-259.914,32.02-392.23,97.889V48.386C81.892,15.827,163.454,0,249.346,0h0c14.594,0,29.605.465,44.618,1.381,14.326.873,29.137,2.186,44.019,3.9,27.5,3.173,55.859,7.742,86.706,13.969,25.748,5.2,53.782,11.688,85.705,19.839,28.5,7.277,57.54,15.214,85.623,22.888l.013,0,2.623.716,4.564,1.247c29.82,8.146,59.023,16.07,88.439,23.478,33.24,8.371,62.814,15.071,90.413,20.482,32.891,6.449,63.434,11.187,93.375,14.487,16.193,1.785,32.378,3.15,48.107,4.059,16.5.953,33.054,1.436,49.217,1.436,131.614,0,259.914-32.02,392.23-97.889V1178.573c-81.892,32.557-163.453,48.384-249.346,48.384h0C1101.057,1226.957,1086.046,1226.493,1071.033,1225.578Z" fill="#072f5e"/>
</svg>
