<svg xmlns="http://www.w3.org/2000/svg" width="19.237" height="14.427" viewBox="0 0 19.237 14.427">
  <g id="Grupo_51" data-name="Grupo 51" transform="translate(-40.938 -63.538)">
    <g id="Grupo_50" data-name="Grupo 50" transform="translate(40.938 63.538)">
      <path id="Caminho_112" data-name="Caminho 112" d="M58.37,63.538H42.744a1.807,1.807,0,0,0-1.806,1.806V76.165a1.806,1.806,0,0,0,1.806,1.8H58.37a1.806,1.806,0,0,0,1.806-1.8V65.344a1.807,1.807,0,0,0-1.806-1.806Zm0,1.2a.6.6,0,0,1,.234.048L50.56,71.762l-8.05-6.976a.6.6,0,0,1,.234-.048Zm0,12.027H42.744a.6.6,0,0,1-.606-.6V66.057l8.026,6.952a.59.59,0,0,0,.786,0l8.026-6.952V76.165a.6.6,0,0,1-.606.6Zm0,0" transform="translate(-40.938 -63.538)" fill="#6fac43"/>
    </g>
  </g>
</svg>
