<?xml version="1.0" encoding="utf-8"?>
<!-- Generator: Adobe Illustrator 24.0.2, SVG Export Plug-In . SVG Version: 6.00 Build 0)  -->
<svg version="1.1" id="Layer_1" xmlns="http://www.w3.org/2000/svg" xmlns:xlink="http://www.w3.org/1999/xlink" x="0px" y="0px"
	 viewBox="0 0 512 512" style="enable-background:new 0 0 512 512;" xml:space="preserve">
<style type="text/css">
	.st0{fill:#5A9A40;}
</style>
<path class="st0" d="M138.6,260.5l27-15.6l8.1,6.9c7,6,14.9,10.5,23.4,13.6l10,3.5V300h30v-31.1l10-3.5c8.5-3,16.4-7.6,23.4-13.6
	l8.1-6.9l27,15.6l15-26L293.7,219l1.9-10.4c0.8-4.4,1.4-9,1.4-13.6c0-4.7-0.6-9.2-1.4-13.6l-1.9-10.4l26.8-15.5l-15-26l-27,15.6
	l-8.1-6.9c-7-6-14.9-10.6-23.4-13.6l-10-3.5V90h-30v31.1l-10,3.5c-8.5,3-16.4,7.6-23.4,13.6l-8.1,6.9l-27-15.6l-15,26l26.7,15.5
	l-1.9,10.4c-0.8,4.4-1.4,9-1.4,13.6c0,4.7,0.6,9.2,1.4,13.6l1.9,10.4l-26.7,15.5L138.6,260.5z M222,150c24.8,0,45,20.2,45,45
	c0,24.8-20.2,45-45,45s-45-20.2-45-45C177,170.2,197.2,150,222,150z"/>
<path class="st0" d="M222,210c8.3,0,15-6.7,15-15c0-8.3-6.7-15-15-15s-15,6.7-15,15C207,203.3,213.7,210,222,210z"/>
<path class="st0" d="M297,512v-62h90v-68.8l30-30v-26.9l67.9-33.5l-68-100.4C414.1,69.7,303-21.3,180.2,4.3
	c-74,15.4-133.9,75.6-149,149.8C17.4,221.6,38.2,289,87,335.7V512H297z M82.6,223.5l34.8-20.1c-0.3-2.8-0.4-5.6-0.4-8.4
	c0-2.8,0.1-5.7,0.4-8.4l-34.8-20.1l45-78l35.2,20.3c4.5-3.1,9.3-5.9,14.3-8.3V60h90v40.6c5,2.4,9.7,5.1,14.3,8.3l35.2-20.3l45,78
	l-34.8,20.1c0.3,2.8,0.4,5.6,0.4,8.4c0,2.8-0.1,5.7-0.4,8.4l34.8,20.1l-45,78l-35.2-20.3c-4.5,3.1-9.3,5.9-14.3,8.3V330h-90v-40.5
	c-5-2.4-9.7-5.1-14.3-8.3l-35.2,20.3L82.6,223.5z"/>
</svg>
