<?xml version="1.0" encoding="utf-8"?>
<!-- Generator: Adobe Illustrator 24.0.2, SVG Export Plug-In . SVG Version: 6.00 Build 0)  -->
<svg version="1.1" id="Layer_1" xmlns="http://www.w3.org/2000/svg" xmlns:xlink="http://www.w3.org/1999/xlink" x="0px" y="0px"
	 viewBox="0 0 24 24" style="enable-background:new 0 0 24 24;" xml:space="preserve">
<style type="text/css">
	.st0{fill:#5A9A40;}
</style>
<path class="st0" d="M21.7,10.9c-1.3-0.4-1.9-0.5-3.6-0.9c0,0-2.4-2.4-2.8-2.8c-0.6-0.6-1-1.2-2.9-1.2H4.5C4,6,3.8,6.5,4.4,7
	C3.7,7.6,2.8,8.4,2.2,9C0.7,10.5,0,11.4,0,13.3C0,15,1,17,3.2,17h0c0.4,1.2,1.5,2,2.8,2s2.4-0.8,2.8-2h6.4c0.4,1.2,1.5,2,2.8,2
	s2.4-0.8,2.8-2h0.7c2,0,2.5-1.8,2.5-3.2C24,11.8,22.9,11.3,21.7,10.9z M6,17.2c-0.7,0-1.2-0.5-1.2-1.2s0.5-1.2,1.2-1.2
	s1.2,0.5,1.2,1.2S6.7,17.2,6,17.2z M9.6,11c-1.1,0-3.5-0.1-5.2-0.8c0.6-0.8,1-1.2,1.3-1.5C5.9,8.3,6.5,8,7.2,8h2.4V11z M10.6,8h1.8
	c0.9,0,1.4,0.5,2,1.1c0.5,0.5,1.7,1.9,1.7,1.9h-5.6L10.6,8L10.6,8z M18,17.2c-0.7,0-1.2-0.5-1.2-1.2s0.5-1.2,1.2-1.2
	s1.2,0.5,1.2,1.2S18.7,17.2,18,17.2z"/>
</svg>
