<?xml version="1.0" encoding="utf-8"?>
<!-- Generator: Adobe Illustrator 24.0.2, SVG Export Plug-In . SVG Version: 6.00 Build 0)  -->
<svg version="1.1" id="Layer_1" xmlns="http://www.w3.org/2000/svg" xmlns:xlink="http://www.w3.org/1999/xlink" x="0px" y="0px"
	 viewBox="0 0 24 24" style="enable-background:new 0 0 24 24;" xml:space="preserve">
<style type="text/css">
	.st0{fill-rule:evenodd;clip-rule:evenodd;fill:#5A9A40;}
</style>
<path class="st0" d="M1,24H0v-2h1l0-9h4v-3h2v3h2v-3h2v3h2v-3h2v3h2v-3h2v3h4v9h1v2H1z M21,17H3v5h2v-3c0-0.6,0.4-1,1-1s1,0.4,1,1v3
	h2v-3c0-0.6,0.4-1,1-1s1,0.4,1,1v3h2v-3c0-0.6,0.4-1,1-1s1,0.4,1,1v3h2v-3c0-0.6,0.4-1,1-1s1,0.4,1,1v3h2V17z M15,2h-3v1
	c3,0,6.2,2,7,6H5c0.5-3.8,3.6-5.8,6-6V0h4V2z"/>
</svg>
