<?xml version="1.0" encoding="utf-8"?>
<!-- Generator: Adobe Illustrator 24.0.2, SVG Export Plug-In . SVG Version: 6.00 Build 0)  -->
<svg version="1.1" id="Layer_1" xmlns="http://www.w3.org/2000/svg" xmlns:xlink="http://www.w3.org/1999/xlink" x="0px" y="0px"
	 viewBox="0 0 24 24" style="enable-background:new 0 0 24 24;" xml:space="preserve">
<style type="text/css">
	.st0{fill-rule:evenodd;clip-rule:evenodd;fill:#5A9A40;}
</style>
<path class="st0" d="M8.8,19c-0.4,1.2-1.5,2-2.8,2c-1.4,0-2.7-1-2.9-2.4l-2.3-0.5c-0.5-0.1-0.8-0.5-0.8-1V7c0-0.5,0.2-1,0.6-1.4
	S1.5,5,2,5h4c0-0.6,0.4-1,1-1h9c0.6,0,1,0.4,1,1h4c1.7,0,3,1.3,3,3v10c0,0.6-0.4,1-1,1h-3.2c-0.4,1.2-1.5,2-2.8,2s-2.4-0.8-2.8-2
	C14.2,19,8.8,19,8.8,19z M6,17c0.6,0,1,0.4,1,1s-0.4,1-1,1s-1-0.4-1-1S5.4,17,6,17z M17,17c0.6,0,1,0.4,1,1s-0.4,1-1,1s-1-0.4-1-1
	S16.4,17,17,17z M22,14c-1.6-1.5-3.1-2-6-2V7h4.5C21.3,7,22,7.7,22,8.5V14z M15,7h-5v5h5V7z M9,7H4v5h5V7z"/>
</svg>
