<svg xmlns="http://www.w3.org/2000/svg" width="18.251" height="18.342" viewBox="0 0 18.251 18.342">
  <g id="Grupo_53" data-name="Grupo 53" transform="translate(-40.938 -69.206)">
    <g id="Grupo_52" data-name="Grupo 52" transform="translate(40.938 69.206)">
      <path id="Caminho_113" data-name="Caminho 113" d="M56.531,71.875A9.09,9.09,0,0,0,42.224,82.836l-1.286,4.712,4.815-1.263a9.106,9.106,0,0,0,4.348,1.1h0a9.091,9.091,0,0,0,6.431-15.514ZM50.1,85.852h0A7.548,7.548,0,0,1,46.253,84.8l-.273-.159-2.863.746L43.88,82.6l-.176-.29a7.551,7.551,0,1,1,6.4,3.54ZM54.244,80.2c-.228-.114-1.343-.66-1.548-.734s-.364-.114-.512.114-.586.734-.723.888-.262.171-.489.057a6.23,6.23,0,0,1-1.827-1.127,7.052,7.052,0,0,1-1.263-1.571c-.131-.228,0-.341.1-.467a6.689,6.689,0,0,0,.563-.774.408.408,0,0,0-.017-.4c-.057-.114-.512-1.235-.7-1.69-.182-.438-.37-.381-.512-.387s-.285-.006-.432-.006a.853.853,0,0,0-.609.279,2.568,2.568,0,0,0-.791,1.9,4.415,4.415,0,0,0,.928,2.35,10.1,10.1,0,0,0,3.876,3.432c.546.233.967.37,1.3.478a3.067,3.067,0,0,0,1.428.085,2.316,2.316,0,0,0,1.531-1.076,1.88,1.88,0,0,0,.137-1.081c-.057-.1-.211-.154-.438-.267Zm0,0" transform="translate(-40.938 -69.206)" fill="#6fac43" fill-rule="evenodd"/>
    </g>
  </g>
</svg>
